<svg width="38" height="38" viewBox="0 0 38 38" fill="none" xmlns="http://www.w3.org/2000/svg">
<rect width="38" height="38" rx="19" fill="#DC242C"/>
<path d="M24.3133 26.0988V29.3019H13.3758V26.0988H13.4539C11.7984 25.1617 10.4248 23.7975 9.47662 22.1484C8.5284 20.4993 8.04029 18.6259 8.06328 16.7238H29.7039C29.7106 18.6227 29.2156 20.4898 28.2691 22.136C27.3225 23.7823 25.9578 25.1493 24.3133 26.0988Z" stroke="white" stroke-width="3" stroke-linecap="round" stroke-linejoin="round"/>
<path d="M23.6101 16.8018H18.1414L23.4538 9.06748C23.8018 8.56744 24.3308 8.22256 24.9288 8.10589C25.5267 7.98922 26.1465 8.10995 26.657 8.44249C27.157 8.79047 27.5019 9.31947 27.6185 9.91739C27.7352 10.5153 27.6145 11.1352 27.2819 11.6456L23.6101 16.8018Z" stroke="white" stroke-width="3" stroke-linecap="round" stroke-linejoin="round"/>
</svg>
