<svg width="28" height="28" viewBox="0 0 28 28" fill="none" xmlns="http://www.w3.org/2000/svg">
<g clip-path="url(#clip0_1338_4260)">
<path d="M24.5 19.1567V23.282C24.5001 23.5774 24.3882 23.8618 24.1869 24.0779C23.9855 24.294 23.7096 24.4257 23.415 24.4463C22.9052 24.4813 22.4887 24.5 22.1667 24.5C11.8568 24.5 3.5 16.1432 3.5 5.83333C3.5 5.51133 3.5175 5.09483 3.55367 4.585C3.57434 4.29035 3.70601 4.01451 3.9221 3.81314C4.1382 3.61177 4.42263 3.49987 4.718 3.5H8.84333C8.98805 3.49985 9.12765 3.5535 9.23502 3.65052C9.34239 3.74755 9.40986 3.88101 9.42433 4.025C9.45117 4.29333 9.47567 4.50683 9.499 4.669C9.73086 6.28708 10.206 7.8608 10.9083 9.33683C11.0192 9.57017 10.9468 9.849 10.7368 9.99833L8.21917 11.7973C9.75853 15.3842 12.617 18.2426 16.2038 19.782L18.0005 17.269C18.0739 17.1663 18.1811 17.0927 18.3032 17.0609C18.4254 17.0292 18.5549 17.0413 18.669 17.0952C20.1449 17.7962 21.7182 18.2701 23.3357 18.501C23.4978 18.5243 23.7113 18.55 23.9773 18.5757C24.1211 18.5904 24.2543 18.658 24.3511 18.7653C24.4479 18.8727 24.5013 19.0121 24.5012 19.1567H24.5Z" fill="#1C1C1E"/>
</g>
<defs>
<clipPath id="clip0_1338_4260">
<rect width="28" height="28" fill="white"/>
</clipPath>
</defs>
</svg>
