<svg width="38" height="38" viewBox="0 0 38 38" fill="none" xmlns="http://www.w3.org/2000/svg">
<rect width="38" height="38" rx="19" fill="#DC242C"/>
<g clip-path="url(#clip0_1338_3337)">
<path d="M7.33325 13.1666V11.7083C6.52784 11.7083 5.87492 12.3612 5.87492 13.1666H7.33325ZM20.1666 13.1666H21.6249C21.6249 12.3612 20.972 11.7083 20.1666 11.7083V13.1666ZM20.1666 15.5V14.0416C19.7798 14.0416 19.4089 14.1953 19.1354 14.4688C18.8619 14.7423 18.7083 15.1132 18.7083 15.5L20.1666 15.5ZM7.33325 14.625H20.1666V11.7083H7.33325V14.625ZM18.7083 13.1666V27.1666H21.6249V13.1666H18.7083ZM8.79159 24.8333V13.1666H5.87492V24.8333H8.79159ZM20.1666 16.9583H25.9999V14.0416H20.1666V16.9583ZM29.2083 20.1666V24.8333H32.1249V20.1666H29.2083ZM21.6249 27.1666L21.6249 15.5L18.7083 15.5L18.7083 27.1666H21.6249ZM26.6186 27.7853C26.2769 28.1271 25.7229 28.1271 25.3812 27.7853L23.3188 29.8477C24.7995 31.3285 27.2003 31.3285 28.681 29.8477L26.6186 27.7853ZM25.3812 26.5479C25.7229 26.2062 26.2769 26.2062 26.6186 26.5479L28.681 24.4855C27.2003 23.0048 24.7995 23.0048 23.3188 24.4855L25.3812 26.5479ZM12.6186 27.7853C12.2769 28.1271 11.7229 28.1271 11.3812 27.7853L9.31881 29.8477C10.7995 31.3285 13.2003 31.3285 14.681 29.8477L12.6186 27.7853ZM11.3812 26.5479C11.7229 26.2062 12.2769 26.2062 12.6186 26.5479L14.681 24.4855C13.2003 23.0048 10.7995 23.0048 9.31881 24.4855L11.3812 26.5479ZM26.6186 26.5479C26.7898 26.719 26.8749 26.9404 26.8749 27.1666H29.7916C29.7916 26.1985 29.4211 25.2256 28.681 24.4855L26.6186 26.5479ZM26.8749 27.1666C26.8749 27.3928 26.7898 27.6142 26.6186 27.7853L28.681 29.8477C29.4211 29.1077 29.7916 28.1347 29.7916 27.1666H26.8749ZM23.6666 25.7083H20.1666V28.625H23.6666V25.7083ZM25.3812 27.7853C25.2101 27.6142 25.1249 27.3928 25.1249 27.1666H22.2083C22.2083 28.1347 22.5787 29.1077 23.3188 29.8477L25.3812 27.7853ZM25.1249 27.1666C25.1249 26.9404 25.2101 26.719 25.3812 26.5479L23.3188 24.4855C22.5787 25.2256 22.2083 26.1985 22.2083 27.1666H25.1249ZM11.3812 27.7853C11.2101 27.6142 11.1249 27.3928 11.1249 27.1666H8.20825C8.20825 28.1347 8.57872 29.1077 9.31881 29.8477L11.3812 27.7853ZM11.1249 27.1666C11.1249 26.9404 11.2101 26.719 11.3812 26.5479L9.31881 24.4855C8.57872 25.2256 8.20825 26.1985 8.20825 27.1666H11.1249ZM20.1666 25.7083H14.3333V28.625H20.1666V25.7083ZM12.6186 26.5479C12.7898 26.719 12.8749 26.9404 12.8749 27.1666H15.7916C15.7916 26.1985 15.4211 25.2256 14.681 24.4855L12.6186 26.5479ZM12.8749 27.1666C12.8749 27.3928 12.7898 27.6142 12.6186 27.7853L14.681 29.8477C15.4211 29.1077 15.7916 28.1347 15.7916 27.1666H12.8749ZM29.2083 24.8333C29.2083 25.3165 28.8165 25.7083 28.3333 25.7083V28.625C30.4273 28.625 32.1249 26.9274 32.1249 24.8333H29.2083ZM25.9999 16.9583C27.7718 16.9583 29.2083 18.3947 29.2083 20.1666H32.1249C32.1249 16.7839 29.3827 14.0416 25.9999 14.0416V16.9583ZM5.87492 24.8333C5.87492 26.9274 7.57251 28.625 9.66659 28.625V25.7083C9.18334 25.7083 8.79159 25.3165 8.79159 24.8333H5.87492Z" fill="white"/>
<path d="M9.08325 9.66667C9.08325 9.02233 9.60559 8.5 10.2499 8.5V8.5C12.1829 8.5 13.7499 10.067 13.7499 12V13.1667H12.5833C10.6503 13.1667 9.08325 11.5997 9.08325 9.66667V9.66667Z" stroke="white" stroke-width="2.91667" stroke-linejoin="round"/>
<path d="M18.4167 9.66667C18.4167 9.02233 17.8944 8.5 17.2501 8.5V8.5C15.3171 8.5 13.7501 10.067 13.7501 12V13.1667H14.9167C16.8497 13.1667 18.4167 11.5997 18.4167 9.66667V9.66667Z" stroke="white" stroke-width="2.91667" stroke-linejoin="round"/>
</g>
<defs>
<clipPath id="clip0_1338_3337">
<rect width="28" height="28" fill="white" transform="translate(5 5)"/>
</clipPath>
</defs>
</svg>
