<svg width="38" height="38" viewBox="0 0 38 38" fill="none" xmlns="http://www.w3.org/2000/svg">
<rect width="38" height="38" rx="19" fill="#DC242C"/>
<g clip-path="url(#clip0_1338_2995)">
<path fill-rule="evenodd" clip-rule="evenodd" d="M19.8256 7.67508C19.37 7.21947 18.6313 7.21947 18.1757 7.67508L10.0096 15.8412L10.0085 15.8423L7.67569 18.1751C7.22008 18.6307 7.22008 19.3694 7.67569 19.825C8.1313 20.2806 8.87 20.2806 9.32561 19.825L9.66732 19.4833V27.1667C9.66732 29.0997 11.2343 30.6667 13.1673 30.6667H24.834C26.767 30.6667 28.334 29.0997 28.334 27.1667V19.4833L28.6757 19.825C29.1313 20.2806 29.87 20.2806 30.3256 19.825C30.7812 19.3694 30.7812 18.6307 30.3256 18.1751L27.993 15.8425L27.9916 15.841L19.8256 7.67508Z" fill="white"/>
</g>
<defs>
<clipPath id="clip0_1338_2995">
<rect width="28" height="28" fill="white" transform="translate(5 5)"/>
</clipPath>
</defs>
</svg>
