<svg width="26" height="25" viewBox="0 0 26 25" fill="none" xmlns="http://www.w3.org/2000/svg">
<path d="M18.3133 20.0987V23.3018H7.37577V20.0987H7.45392C5.79843 19.1617 4.42485 17.7974 3.47662 16.1483C2.5284 14.4992 2.04029 12.6258 2.06328 10.7237H23.7039C23.7106 12.6227 23.2156 14.4897 22.2691 16.136C21.3225 17.7822 19.9578 19.1492 18.3133 20.0987Z" stroke="#1C1C1E" stroke-width="3" stroke-linecap="round" stroke-linejoin="round"/>
<path d="M17.6104 10.8018H12.1416L17.4541 3.06748C17.8021 2.56744 18.3311 2.22256 18.929 2.10589C19.5269 1.98922 20.1468 2.10995 20.6572 2.44249C21.1572 2.79047 21.5021 3.31947 21.6188 3.91739C21.7355 4.51532 21.6147 5.13516 21.2822 5.64559L17.6104 10.8018Z" stroke="#1C1C1E" stroke-width="3" stroke-linecap="round" stroke-linejoin="round"/>
</svg>
