<svg width="24" height="24" viewBox="0 0 24 24" fill="none" xmlns="http://www.w3.org/2000/svg">
<path d="M17.3133 19.0987V22.3018H6.37577V19.0987H6.45392C4.79843 18.1617 3.42485 16.7974 2.47662 15.1483C1.5284 13.4992 1.04029 11.6258 1.06328 9.72369H22.7039C22.7106 11.6227 22.2156 13.4897 21.2691 15.136C20.3225 16.7822 18.9578 18.1492 17.3133 19.0987Z" stroke="#1C1C1E" stroke-width="1.95312" stroke-linecap="round" stroke-linejoin="round"/>
<path d="M16.6104 9.80185H11.1416L16.4541 2.06748C16.8021 1.56744 17.3311 1.22256 17.929 1.10589C18.5269 0.989221 19.1468 1.10995 19.6572 1.44249C20.1572 1.79047 20.5021 2.31947 20.6188 2.91739C20.7355 3.51532 20.6147 4.13516 20.2822 4.64559L16.6104 9.80185Z" stroke="#1C1C1E" stroke-width="1.95312" stroke-linecap="round" stroke-linejoin="round"/>
</svg>
