<svg width="28" height="28" viewBox="0 0 28 28" fill="none" xmlns="http://www.w3.org/2000/svg">
<g clip-path="url(#clip0_1337_13053)">
<path d="M2.33301 8.16669V6.70835C1.52759 6.70835 0.874674 7.36127 0.874674 8.16669H2.33301ZM15.1663 8.16669H16.6247C16.6247 7.36127 15.9718 6.70835 15.1663 6.70835V8.16669ZM15.1663 10.5V9.04169C14.7796 9.04169 14.4086 9.19533 14.1351 9.46882C13.8617 9.74231 13.708 10.1132 13.708 10.5L15.1663 10.5ZM2.33301 9.62502H15.1663V6.70835H2.33301V9.62502ZM13.708 8.16669V22.1667H16.6247V8.16669H13.708ZM3.79134 19.8334V8.16669H0.874674V19.8334H3.79134ZM15.1663 11.9584H20.9997V9.04169H15.1663V11.9584ZM24.208 15.1667V19.8334H27.1247V15.1667H24.208ZM16.6247 22.1667L16.6247 10.5L13.708 10.5L13.708 22.1667H16.6247ZM21.6184 22.7854C21.2767 23.1271 20.7227 23.1271 20.381 22.7854L18.3186 24.8478C19.7993 26.3285 22.2001 26.3285 23.6808 24.8478L21.6184 22.7854ZM20.381 21.548C20.7227 21.2063 21.2767 21.2063 21.6184 21.548L23.6808 19.4856C22.2001 18.0048 19.7993 18.0048 18.3186 19.4856L20.381 21.548ZM7.61839 22.7854C7.27668 23.1271 6.72266 23.1271 6.38096 22.7854L4.31856 24.8478C5.7993 26.3285 8.20005 26.3285 9.68079 24.8478L7.61839 22.7854ZM6.38096 21.548C6.72266 21.2063 7.27668 21.2063 7.61839 21.548L9.68079 19.4856C8.20005 18.0048 5.7993 18.0048 4.31856 19.4856L6.38096 21.548ZM21.6184 21.548C21.7895 21.7191 21.8747 21.9405 21.8747 22.1667H24.7913C24.7913 21.1986 24.4209 20.2257 23.6808 19.4856L21.6184 21.548ZM21.8747 22.1667C21.8747 22.3929 21.7895 22.6143 21.6184 22.7854L23.6808 24.8478C24.4209 24.1077 24.7913 23.1348 24.7913 22.1667H21.8747ZM18.6663 20.7084H15.1663V23.625H18.6663V20.7084ZM20.381 22.7854C20.2098 22.6143 20.1247 22.3929 20.1247 22.1667H17.208C17.208 23.1348 17.5785 24.1077 18.3186 24.8478L20.381 22.7854ZM20.1247 22.1667C20.1247 21.9405 20.2098 21.7191 20.381 21.548L18.3186 19.4856C17.5785 20.2257 17.208 21.1986 17.208 22.1667H20.1247ZM6.38096 22.7854C6.20982 22.6143 6.12467 22.3929 6.12467 22.1667H3.20801C3.20801 23.1348 3.57848 24.1077 4.31856 24.8478L6.38096 22.7854ZM6.12467 22.1667C6.12467 21.9405 6.20982 21.7191 6.38096 21.548L4.31856 19.4856C3.57848 20.2257 3.20801 21.1986 3.20801 22.1667H6.12467ZM15.1663 20.7084H9.33301V23.625H15.1663V20.7084ZM7.61839 21.548C7.78953 21.7191 7.87467 21.9405 7.87467 22.1667H10.7913C10.7913 21.1986 10.4209 20.2257 9.68079 19.4856L7.61839 21.548ZM7.87467 22.1667C7.87467 22.3929 7.78953 22.6143 7.61839 22.7854L9.68079 24.8478C10.4209 24.1077 10.7913 23.1348 10.7913 22.1667H7.87467ZM24.208 19.8334C24.208 20.3166 23.8163 20.7084 23.333 20.7084V23.625C25.4271 23.625 27.1247 21.9274 27.1247 19.8334H24.208ZM20.9997 11.9584C22.7716 11.9584 24.208 13.3948 24.208 15.1667H27.1247C27.1247 11.7839 24.3824 9.04169 20.9997 9.04169V11.9584ZM0.874674 19.8334C0.874674 21.9274 2.57226 23.625 4.66634 23.625V20.7084C4.18309 20.7084 3.79134 20.3166 3.79134 19.8334H0.874674Z" fill="#1C1C1E"/>
<path d="M4.08301 4.66667C4.08301 4.02233 4.60534 3.5 5.24967 3.5V3.5C7.18267 3.5 8.74967 5.067 8.74967 7V8.16667H7.58301C5.65001 8.16667 4.08301 6.59966 4.08301 4.66667V4.66667Z" stroke="#1C1C1E" stroke-width="2.91667" stroke-linejoin="round"/>
<path d="M13.417 4.66667C13.417 4.02233 12.8947 3.5 12.2503 3.5V3.5C10.3173 3.5 8.75033 5.067 8.75033 7V8.16667H9.91699C11.85 8.16667 13.417 6.59966 13.417 4.66667V4.66667Z" stroke="#1C1C1E" stroke-width="2.91667" stroke-linejoin="round"/>
</g>
<defs>
<clipPath id="clip0_1337_13053">
<rect width="28" height="28" fill="white"/>
</clipPath>
</defs>
</svg>
